<?xml version="1.0" encoding="iso-8859-1"?>
<!-- Generator: Adobe Illustrator 19.0.0, SVG Export Plug-In . SVG Version: 6.00 Build 0)  -->
<svg version="1.1" id="Layer_1" xmlns="http://www.w3.org/2000/svg" xmlns:xlink="http://www.w3.org/1999/xlink" x="0px" y="0px"
	 viewBox="0 0 512 512" style="enable-background:new 0 0 512 512;" xml:space="preserve">
<g>
	<g>
		<path d="M355.9,173.167l-51.2-51.2c-1.596-1.604-3.772-2.5-6.033-2.5H256V8.533C256,3.814,252.177,0,247.467,0H25.6
			c-4.71,0-8.533,3.814-8.533,8.533v158.208C6.622,176.128,0,189.688,0,204.8C0,233.037,22.963,256,51.2,256
			c25.318,0,46.345-18.492,50.432-42.667H153.6v51.2c0,2.27,0.896,4.437,2.5,6.033l51.2,51.2c1.596,1.604,3.772,2.5,6.033,2.5
			h85.333c2.261,0,4.437-0.896,6.033-2.5l51.2-51.2c1.604-1.596,2.5-3.763,2.5-6.033V179.2
			C358.4,176.93,357.504,174.763,355.9,173.167z M51.2,238.933c-18.825,0-34.133-15.309-34.133-34.133s15.309-34.133,34.133-34.133
			s34.133,15.309,34.133,34.133S70.025,238.933,51.2,238.933z M153.6,179.2v17.067h-51.968C97.553,172.092,76.527,153.6,51.2,153.6
			c-5.99,0-11.716,1.092-17.067,2.987V17.067h204.8v102.4h-25.6c-2.261,0-4.437,0.896-6.033,2.5l-51.2,51.2
			C154.496,174.763,153.6,176.93,153.6,179.2z M341.333,261.001l-46.2,46.199h-78.268l-46.199-46.199v-78.268l46.199-46.2h78.268
			l46.2,46.199V261.001z"/>
	</g>
</g>
<g>
	<g>
		<path d="M235.955,445.79l-59.733-51.2c-2.526-2.176-6.084-2.671-9.122-1.271c-3.021,1.391-4.966,4.412-4.966,7.748v25.6H76.8
			V332.8c0-4.719-3.823-8.533-8.533-8.533H34.133c-4.71,0-8.533,3.814-8.533,8.533v136.533c0,4.719,3.823,8.533,8.533,8.533h128
			v25.6c0,3.337,1.946,6.357,4.966,7.748c1.143,0.529,2.355,0.785,3.567,0.785c1.997,0,3.977-0.7,5.555-2.057l59.733-51.2
			c1.894-1.621,2.978-3.985,2.978-6.477C238.933,449.775,237.85,447.411,235.955,445.79z M179.2,484.915v-15.582
			c0-4.719-3.823-8.533-8.533-8.533h-128V341.333h17.067V435.2c0,4.719,3.823,8.533,8.533,8.533h102.4
			c4.71,0,8.533-3.814,8.533-8.533v-15.582l38.084,32.648L179.2,484.915z"/>
	</g>
</g>
<g>
	<g>
		<path d="M413.867,315.733c-54.11,0-98.133,44.023-98.133,98.133S359.757,512,413.867,512S512,467.977,512,413.867
			S467.977,315.733,413.867,315.733z M413.867,494.933c-44.698,0-81.067-36.369-81.067-81.067c0-44.698,36.369-81.067,81.067-81.067
			c44.698,0,81.067,36.369,81.067,81.067C494.933,458.564,458.564,494.933,413.867,494.933z"/>
	</g>
</g>
<g>
</g>
<g>
</g>
<g>
</g>
<g>
</g>
<g>
</g>
<g>
</g>
<g>
</g>
<g>
</g>
<g>
</g>
<g>
</g>
<g>
</g>
<g>
</g>
<g>
</g>
<g>
</g>
<g>
</g>
</svg>
