<svg fill="#000000" xmlns="http://www.w3.org/2000/svg"  viewBox="0 0 48 48" width="48px" height="48px"><path d="M 23.964844 0 A 1.50015 1.50015 0 0 0 22.755859 0.66015625 L 9.2558594 20.660156 A 1.50015 1.50015 0 0 0 9.8085938 22.832031 L 23.308594 29.832031 A 1.50015 1.50015 0 0 0 24.691406 29.832031 L 38.191406 22.832031 A 1.50015 1.50015 0 0 0 38.744141 20.660156 L 25.244141 0.66015625 A 1.50015 1.50015 0 0 0 23.964844 0 z M 24 4.1835938 L 24 16 L 35.001953 20.482422 L 35.3125 20.943359 L 24 26.810547 L 24 16 L 12.998047 20.482422 L 24 4.1835938 z M 37.519531 27 A 1.50015 1.50015 0 0 0 36.837891 27.154297 L 23.998047 33.474609 L 11.162109 27.154297 A 1.50015 1.50015 0 0 0 9.3007812 29.400391 L 22.800781 47.400391 A 1.50015 1.50015 0 0 0 25.199219 47.400391 L 38.699219 29.400391 A 1.50015 1.50015 0 0 0 37.519531 27 z M 15.460938 32.615234 L 23.128906 36.390625 A 1.50015 1.50015 0 0 0 23.513672 36.580078 L 24 36.820312 L 24 44 L 15.460938 32.615234 z"/></svg>